<?xml version="1.0" encoding="iso-8859-1"?>
<!-- Uploaded to: SVG Repo, www.svgrepo.com, Generator: SVG Repo Mixer Tools -->
<svg height="800px" width="800px" version="1.1" id="Layer_1" xmlns="http://www.w3.org/2000/svg" xmlns:xlink="http://www.w3.org/1999/xlink" 
	 viewBox="0 0 503.467 503.467" xml:space="preserve">
<g transform="translate(7 7)">
	<path style="fill:#E4F2DE;" d="M210.6,447.827l-98.987-58.88c3.413-5.12,5.12-11.947,5.12-17.92
		c0-18.773-15.36-34.133-34.133-34.133V217.427c18.773,0,34.133-15.36,34.133-34.133c0-6.827-1.707-12.8-5.12-17.92l104.96-65.707
		c5.973,9.387,16.213,15.36,28.16,15.36c11.947,0,22.187-5.973,28.16-15.36l104.96,65.707c-3.413,5.12-5.12,11.093-5.12,17.92
		c0,18.773,15.36,34.133,34.133,34.133v119.467c-18.773,0-34.133,15.36-34.133,34.133c0,6.827,1.707,12.8,5.12,17.92l-98.987,58.88
		c0-18.773-15.36-34.133-34.133-34.133S210.6,429.054,210.6,447.827"/>
	<path style="fill:#80D6FA;" d="M441,372.734c0,18.773-15.36,34.133-34.133,34.133c-11.947,0-23.04-5.973-29.013-16.213
		c-3.413-5.12-5.12-11.947-5.12-17.92c0-18.773,15.36-34.133,34.133-34.133S441,353.96,441,372.734z M116.733,372.734
		c0,6.827-1.707,12.8-5.12,17.92C105.64,400.04,95.4,406.867,82.6,406.867c-18.773,0-34.133-15.36-34.133-34.133
		S63.827,338.6,82.6,338.6S116.733,353.96,116.733,372.734z M278.867,82.6c0,6.827-2.56,13.653-5.973,18.773
		c-5.973,9.387-16.213,15.36-28.16,15.36c-11.947,0-22.187-5.973-28.16-15.36c-3.413-5.12-5.973-11.947-5.973-18.773
		c0-18.773,15.36-34.133,34.133-34.133S278.867,63.827,278.867,82.6z"/>
	<path style="fill:#FFE079;" d="M406.867,150.867C425.64,150.867,441,166.227,441,185s-15.36,34.133-34.133,34.133
		s-34.133-15.36-34.133-34.133c0-6.827,1.707-12.8,5.12-17.92C383.827,157.693,394.92,150.867,406.867,150.867z M111.613,167.08
		c3.413,5.12,5.12,11.093,5.12,17.92c0,18.773-15.36,34.133-34.133,34.133S48.467,203.774,48.467,185s15.36-34.133,34.133-34.133
		C94.547,150.867,105.64,157.693,111.613,167.08z"/>
</g>
<path style="fill:#51565F;" d="M277.333,503.467c-2.56,0-4.267-1.707-4.267-4.267v-29.867H230.4V499.2
	c0,2.56-1.707,4.267-4.267,4.267c-2.56,0-4.267-1.707-4.267-4.267v-68.267c0-2.56,1.707-4.267,4.267-4.267
	c2.56,0,4.267,1.707,4.267,4.267V460.8h42.667v-29.867c0-2.56,1.707-4.267,4.267-4.267s4.267,1.707,4.267,4.267V499.2
	C281.6,501.76,279.893,503.467,277.333,503.467z M192,448.854c-0.853,0-1.707,0-2.56-0.853l-69.973-44.373
	c-0.853,0.853-1.707,1.707-2.56,3.413c-7.68,7.68-17.067,11.093-27.307,11.093c-21.333,0-38.4-17.067-38.4-38.4l0,0
	c0-19.627,15.36-35.84,34.133-38.4v-7.68c0-1.707,0-4.267,0-6.827V230.4C66.56,227.84,51.2,211.627,51.2,192
	c0-6.827,1.707-12.8,4.267-17.92l-53.76-38.4C0.854,134.827,0,133.12,0,132.267c0-0.853,0-1.707,0.853-2.56
	c1.707-1.707,4.267-2.56,5.973-0.853l53.76,37.547c6.827-7.68,17.067-12.8,29.013-12.8l0,0c10.24,0,19.627,4.267,27.307,11.093
	c0.853,0.853,1.707,2.56,2.56,3.413L217.6,107.52c-2.56-5.12-4.267-11.093-4.267-17.92c0-19.627,15.36-35.84,34.133-38.4V4.267
	c0-2.56,1.707-4.267,4.267-4.267S256,1.707,256,4.267V51.2c8.533,0.853,17.067,5.12,23.04,11.093
	c6.827,7.68,11.093,17.067,11.093,27.307c0,5.973-1.707,11.947-4.267,17.92L384,168.107c6.827-8.533,17.92-14.507,29.867-14.507l0,0
	c10.24,0,19.627,4.267,27.307,11.093S452.267,181.76,452.267,192c0,10.24-4.267,19.627-11.093,27.307
	c-5.973,5.973-14.507,10.24-23.04,11.093v111.787c8.533,0.853,17.067,5.12,23.04,11.093c6.827,7.68,11.093,17.067,11.093,27.307
	c0,6.827-1.707,12.8-4.267,17.92l53.76,37.547c0.853,0.853,1.707,2.56,1.707,3.413c0,0.853,0,1.707-0.853,2.56
	c-1.707,1.707-4.267,2.56-5.973,0.853l-53.76-37.547c-0.853,0.853-0.853,0.853-1.707,1.707c-6.827,7.68-17.067,11.093-27.307,11.093
	c-11.947,0-23.04-5.973-29.867-14.507L314.027,448c-1.707,0.853-4.267,0.853-5.973-1.707c-0.853-0.853-0.853-1.707-0.853-2.56
	c0-1.707,0.853-2.56,1.707-3.413l69.973-44.373c-2.56-5.12-4.267-11.093-4.267-17.067c0-19.627,15.36-35.84,34.133-38.4V228.693
	c-18.773-2.56-34.133-18.773-34.133-38.4c0-5.973,1.707-11.947,3.413-16.213l-98.133-61.44c-0.853,0.853-1.707,1.707-2.56,2.56
	c-6.827,6.827-17.067,11.093-27.307,11.093c-11.947,0-22.187-5.12-29.013-13.653l-98.133,61.44c2.56,5.12,3.413,11.093,3.413,16.213
	c0,10.24-4.267,19.627-11.093,27.307c-5.973,5.973-14.507,10.24-23.04,11.093V340.48c8.533,0.853,17.067,5.12,23.04,11.093
	c6.827,6.827,11.093,17.067,11.093,27.307c0,5.973-1.707,11.947-4.267,17.067L192,440.32c0.853,0.853,1.707,2.56,1.707,3.413
	s0,1.707-0.853,2.56C194.56,448.854,193.707,448.854,192,448.854z M389.12,395.947c5.12,7.68,14.507,13.653,24.747,13.653
	c7.68,0,15.36-3.413,21.333-8.533c5.973-5.12,8.533-12.8,8.533-21.333c0-7.68-3.413-15.36-8.533-21.333
	c-5.973-5.973-12.8-8.533-21.333-8.533l0,0l0,0c-16.213,0-29.867,13.653-29.867,29.867c0,5.973,1.707,11.093,4.267,15.36
	C388.267,395.094,388.267,395.094,389.12,395.947L389.12,395.947z M59.733,379.734c0,16.213,13.653,29.867,29.867,29.867
	c7.68,0,15.36-3.413,21.333-8.533c1.707-1.707,2.56-2.56,3.413-4.267v-0.853c0,0,0-0.853,0.853-0.853
	c2.56-4.267,4.267-10.24,4.267-15.36c0-7.68-3.413-15.36-8.533-21.333c-5.973-5.973-12.8-8.533-21.333-8.533l0,0
	C73.387,349.867,59.733,363.52,59.733,379.734z M388.267,176.64c-2.56,4.267-4.267,9.387-4.267,15.36
	c0,16.213,13.653,29.867,29.867,29.867c7.68,0,15.36-3.413,21.333-8.533c5.973-5.973,8.533-12.8,8.533-21.333
	c0-7.68-3.413-15.36-8.533-21.333c-5.973-5.973-12.8-8.533-21.333-8.533l0,0l0,0c-10.24,0-19.627,5.12-24.747,13.653
	C389.12,175.787,389.12,175.787,388.267,176.64L388.267,176.64z M89.6,162.134L89.6,162.134c-16.213,0-29.867,13.653-29.867,29.867
	s13.653,29.867,29.867,29.867c7.68,0,15.36-3.413,21.333-8.533c5.973-5.973,8.533-12.8,8.533-21.333c0-5.12-1.707-10.24-4.267-15.36
	c0,0,0-0.853-0.853-0.853v-0.853c-0.853-1.707-2.56-3.413-3.413-4.267C104.96,165.547,97.28,162.134,89.6,162.134z M251.733,59.734
	L251.733,59.734c-16.213,0-29.867,13.653-29.867,29.867s13.653,29.867,29.867,29.867c7.68,0,15.36-3.413,21.333-8.533
	c1.707-1.707,2.56-2.56,3.413-4.267l0,0l0,0c3.413-5.12,5.12-10.24,5.12-16.213c0-7.68-3.413-15.36-8.533-21.333
	C267.094,63.147,259.413,59.734,251.733,59.734z M379.733,315.734c-2.56,0-4.267-1.707-4.267-4.267v-51.2
	c0-2.56,1.707-4.267,4.267-4.267s4.267,1.707,4.267,4.267v51.2C384,314.027,382.294,315.734,379.733,315.734z M123.733,315.734
	c-2.56,0-4.267-1.707-4.267-4.267v-51.2c0-2.56,1.707-4.267,4.267-4.267c2.56,0,4.267,1.707,4.267,4.267v51.2
	C128,314.027,126.293,315.734,123.733,315.734z M339.627,192.854c-0.853,0-1.707,0-2.56-0.853l-44.373-25.6
	c-1.707-0.853-2.56-2.56-2.56-3.413c0-0.853,0-1.707,0.853-2.56c0.853-1.707,3.413-2.56,5.973-1.707l44.373,25.6
	c1.707,0.853,2.56,2.56,2.56,3.413c0,0.853,0,1.707-0.853,2.56C343.04,192,341.333,192.854,339.627,192.854z"/>
</svg>