<?xml version="1.0" encoding="iso-8859-1"?>
<!-- Uploaded to: SVG Repo, www.svgrepo.com, Generator: SVG Repo Mixer Tools -->
<svg height="800px" width="800px" version="1.1" id="Layer_1" xmlns="http://www.w3.org/2000/svg" xmlns:xlink="http://www.w3.org/1999/xlink" 
	 viewBox="0 0 503.893 503.893" xml:space="preserve">
<g transform="translate(1 1)">
	<polygon style="fill:#FF7474;" points="328.387,268.227 413.72,353.56 499.053,268.227 413.72,182.893 	"/>
	<g>
		<path style="fill:#AAB1BA;" d="M413.72,353.56l-68.267,68.267c-51.2,51.2-93.013,76.8-153.6,76.8
			C88.6,498.627,4.12,414.147,4.12,310.893c0-60.587,34.133-110.933,76.8-153.6l68.267-68.267l85.333,85.333l-93.867,93.867
			c-13.653,13.653-25.6,29.867-25.6,51.2c0,42.667,25.6,68.267,68.267,68.267c21.333,0,37.547-11.947,51.2-25.6l93.867-93.867
			L413.72,353.56z"/>
		<polygon style="fill:#80D6FA;" points="319.853,89.027 234.52,174.36 149.187,89.027 234.52,3.693 		"/>
	</g>
</g>
<path style="fill:#51565F;" d="M192.853,503.893c-105.813,0-192-86.187-192-192c0-52.907,25.6-104.107,77.653-157.013l153.6-153.6
	c1.707-1.707,4.267-1.707,5.973,0l85.333,85.333c1.707,1.707,1.707,4.267,0,5.973L238.08,177.92c-1.707,1.707-4.267,1.707-5.973,0
	l-59.733-59.733c-1.707-1.707-1.707-4.267,0-5.973c1.707-1.707,4.267-1.707,5.973,0l56.32,56.32l79.36-79.36l-79.36-79.36L84.48,160
	c-51.2,51.2-75.947,99.84-75.947,150.187c0,101.547,81.92,183.467,183.467,183.467c62.293,0,104.107-29.013,150.187-75.947
	l42.667-42.667c1.707-1.707,4.267-1.707,5.973,0c1.707,1.707,1.707,4.267,0,5.973l-42.667,42.667
	C301.227,474.027,258.56,503.893,192.853,503.893z M184.32,392.96c-44.373,0-72.533-28.16-72.533-72.533
	c0-23.893,14.507-41.813,26.453-54.613l68.267-68.267c1.707-1.707,4.267-1.707,5.973,0c1.707,1.707,1.707,4.267,0,5.973
	l-68.267,68.267c-11.093,11.093-24.747,27.307-24.747,47.787c0,40.107,23.893,64,64,64c21.333,0,36.693-12.8,47.787-24.747
	l179.2-179.2c1.707-1.707,4.267-1.707,5.973,0l85.333,85.333c1.707,1.707,1.707,4.267,0,5.973l-85.333,85.333
	c-1.707,1.707-4.267,1.707-5.973,0l-51.2-51.2c-1.707-1.707-1.707-4.267,0-5.973c1.707-1.707,4.267-1.707,5.973,0l47.787,47.787
	l79.36-79.36l-79.36-79.36L237.227,363.947C226.133,378.453,208.213,392.96,184.32,392.96z M397.653,290.56
	c-0.853,0-2.56,0-3.413-0.853c-1.707-1.707-1.707-4.267,0-5.973l34.133-34.133c1.707-1.707,4.267-1.707,5.973,0s1.707,4.267,0,5.973
	l-34.133,34.133C400.213,290.56,398.507,290.56,397.653,290.56z M448.853,145.493c-0.853,0-2.56,0-3.413-0.853
	c-1.707-1.707-1.707-4.267,0-5.973l38.4-38.4L454.827,85.76c-0.853-0.853-1.707-1.707-2.56-3.413c0-1.707,0-2.56,0.853-3.413
	l42.667-42.667c1.707-1.707,4.267-1.707,5.973,0c1.707,1.707,1.707,4.267,0,5.973l-38.4,38.4l29.013,14.507
	c0.853,0.853,1.707,1.707,2.56,3.413c0,1.707,0,2.56-0.853,3.413l-42.667,42.667C451.413,145.493,449.707,145.493,448.853,145.493z
	 M363.52,111.36c-0.853,0-2.56,0-3.413-0.853c-1.707-1.707-1.707-4.267,0-5.973l38.4-38.4l-29.013-14.507
	c-0.853-0.853-1.707-1.707-2.56-3.413c0-1.707,0-2.56,0.853-3.413l42.667-42.667c1.707-1.707,4.267-1.707,5.973,0
	s1.707,4.267,0,5.973l-38.4,38.4l29.013,14.507c0.853,0.853,1.707,1.707,2.56,3.413c0,1.707,0,2.56-0.853,3.413l-42.667,42.667
	C366.08,111.36,364.373,111.36,363.52,111.36z M252.587,111.36c-0.853,0-2.56,0-3.413-0.853L235.52,96.853l-13.653,13.653
	c-1.707,1.707-4.267,1.707-5.973,0c-1.707-1.707-1.707-4.267,0-5.973l13.653-13.653l-13.653-13.653
	c-1.707-1.707-1.707-4.267,0-5.973c1.707-1.707,4.267-1.707,5.973,0l13.653,13.653l13.653-13.653c1.707-1.707,4.267-1.707,5.973,0
	s1.707,4.267,0,5.973L241.493,90.88l13.653,13.653c1.707,1.707,1.707,4.267,0,5.973C255.147,111.36,253.44,111.36,252.587,111.36z"
	/>
</svg>