<?xml version="1.0" encoding="iso-8859-1"?>
<!-- Uploaded to: SVG Repo, www.svgrepo.com, Generator: SVG Repo Mixer Tools -->
<svg height="800px" width="800px" version="1.1" id="Layer_1" xmlns="http://www.w3.org/2000/svg" xmlns:xlink="http://www.w3.org/1999/xlink" 
	 viewBox="0 0 503.467 503.467" xml:space="preserve">
<g transform="translate(1 41)">
	<path style="fill:#80D6FA;" d="M122.733,304.6c18.773,0,34.133,15.36,34.133,34.133c0,18.773-15.36,34.133-34.133,34.133
		S88.6,357.507,88.6,338.733C88.6,319.96,103.96,304.6,122.733,304.6z M242.2,304.6c18.773,0,34.133,15.36,34.133,34.133
		c0,18.773-15.36,34.133-34.133,34.133s-34.133-15.36-34.133-34.133C208.067,319.96,223.427,304.6,242.2,304.6z M378.733,304.6
		c18.773,0,34.133,15.36,34.133,34.133c0,18.773-15.36,34.133-34.133,34.133c-18.773,0-34.133-15.36-34.133-34.133
		C344.6,319.96,359.96,304.6,378.733,304.6z"/>
	<path style="fill:#AAB1BA;" d="M498.2,441.133V458.2H3.267v-17.067c0,0,0-17.067,17.067-17.067h460.8
		C498.2,424.067,498.2,441.133,498.2,441.133"/>
</g>
<path style="fill:#51565F;" d="M499.2,503.467H4.267C1.707,503.467,0,501.76,0,499.2v-17.067c0-6.827,3.413-18.773,17.067-21.333
	V4.267c0-2.56,1.707-4.267,4.267-4.267S25.6,1.707,25.6,4.267v460.8c0,2.56-1.707,4.267-4.267,4.267
	c-11.947,0-12.8,11.093-12.8,12.8v12.8h486.4v-12.8c0-1.707-0.853-12.8-12.8-12.8H55.467c-2.56,0-4.267-1.707-4.267-4.267
	c0-2.56,1.707-4.267,4.267-4.267h426.667c17.067,0,21.333,13.653,21.333,21.333V499.2C503.467,501.76,501.76,503.467,499.2,503.467z
	 M482.133,435.2c-2.56,0-4.267-1.707-4.267-4.267V4.267c0-2.56,1.707-4.267,4.267-4.267s4.267,1.707,4.267,4.267v426.667
	C486.4,433.493,484.693,435.2,482.133,435.2z M379.733,418.133c-21.333,0-38.4-17.067-38.4-38.4c0-19.627,14.507-35.84,33.28-38.4
	L341.333,25.6h-93.867v315.733c18.773,2.56,34.133,18.773,34.133,38.4c0,21.333-17.067,38.4-38.4,38.4s-38.4-17.067-38.4-38.4
	c0-19.627,15.36-35.84,34.133-38.4V25.6H128v315.733c18.773,2.56,34.133,18.773,34.133,38.4c0,21.333-17.067,38.4-38.4,38.4
	s-38.4-17.067-38.4-38.4c0-19.627,15.36-35.84,34.133-38.4V25.6h-64c-2.56,0-4.267-1.707-4.267-4.267s1.707-4.267,4.267-4.267H345.6
	l0,0H448c2.56,0,4.267,1.707,4.267,4.267S450.56,25.6,448,25.6h-97.28L384,341.333c19.627,1.707,34.133,17.92,34.133,38.4
	C418.133,401.067,401.067,418.133,379.733,418.133z M379.733,349.867c-16.213,0-29.867,13.653-29.867,29.867
	c0,16.213,13.653,29.867,29.867,29.867c16.213,0,29.867-13.653,29.867-29.867C409.6,363.52,395.947,349.867,379.733,349.867
	L379.733,349.867z M243.2,349.867c-16.213,0-29.867,13.653-29.867,29.867c0,16.213,13.653,29.867,29.867,29.867
	s29.867-13.653,29.867-29.867C273.067,363.52,259.413,349.867,243.2,349.867z M123.733,349.867
	c-16.213,0-29.867,13.653-29.867,29.867c0,16.213,13.653,29.867,29.867,29.867s29.867-13.653,29.867-29.867
	C153.6,363.52,139.947,349.867,123.733,349.867z"/>
</svg>