<?xml version="1.0" encoding="iso-8859-1"?>
<!-- Uploaded to: SVG Repo, www.svgrepo.com, Generator: SVG Repo Mixer Tools -->
<svg height="800px" width="800px" version="1.1" id="Layer_1" xmlns="http://www.w3.org/2000/svg" xmlns:xlink="http://www.w3.org/1999/xlink" 
	 viewBox="0 0 503.467 503.467" xml:space="preserve">
<g transform="translate(5 1)">
	<path style="fill:#E4F2DE;" d="M425.933,71.533V395.8h-68.267c-9.387,0-17.067,8.533-17.067,17.067v51.2H93.133
		c-14.507,0-25.6-11.093-25.6-25.6V71.533h85.333V88.6H340.6V71.533H425.933z"/>
	<path style="fill:#AAB1BA;" d="M460.067,71.533v392.533c0,17.067-17.067,34.133-34.133,34.133h-358.4
		c-17.067,0-34.133-17.067-34.133-34.133V71.533C33.4,54.467,50.467,37.4,67.533,37.4h85.333v34.133H67.533v366.933
		c0,14.507,11.093,25.6,25.6,25.6H340.6h34.133l51.2-51.2V395.8V71.533H340.6V37.4h85.333C443,37.4,460.067,54.467,460.067,71.533"
		/>
	<path style="fill:#ECF4F7;" d="M425.933,395.8v17.067l-51.2,51.2H340.6v-51.2c0-8.533,7.68-17.067,17.067-17.067H425.933z"/>
	<path style="fill:#80D6FA;" d="M340.6,71.533V88.6H152.867V71.533V37.4h52.053c4.267-19.627,21.333-34.133,41.813-34.133
		S284.28,17.773,288.547,37.4H340.6V71.533z"/>
</g>
<path style="fill:#51565F;" d="M430.933,503.467h-358.4c-19.627,0-38.4-18.773-38.4-38.4V72.533c0-19.627,18.773-38.4,38.4-38.4
	h51.2c2.56,0,4.267,1.707,4.267,4.267s-1.707,4.267-4.267,4.267h-51.2c-14.507,0-29.867,15.36-29.867,29.867v392.533
	c0,14.507,15.36,29.867,29.867,29.867h358.4c14.507,0,29.867-15.36,29.867-29.867V72.533c0-14.507-15.36-29.867-29.867-29.867h-51.2
	c-2.56,0-4.267-1.707-4.267-4.267s1.707-4.267,4.267-4.267h51.2c19.627,0,38.4,18.773,38.4,38.4v392.533
	C469.333,484.693,450.56,503.467,430.933,503.467z M379.733,469.333c-0.853,0-2.56,0-3.413-0.853c-1.707-1.707-1.707-4.267,0-5.973
	l50.347-50.347V76.8h-46.933c-2.56,0-4.267-1.707-4.267-4.267c0-2.56,1.707-4.267,4.267-4.267h51.2c2.56,0,4.267,1.707,4.267,4.267
	v341.333c0,0.853-0.853,2.56-0.853,3.413l-51.2,51.2C382.293,469.333,380.587,469.333,379.733,469.333z M345.6,469.333H98.133
	c-16.213,0-29.867-13.653-29.867-29.867V72.533c0-2.56,1.707-4.267,4.267-4.267h51.2c2.56,0,4.267,1.707,4.267,4.267
	c0,2.56-1.707,4.267-4.267,4.267H76.8v362.667c0,11.947,9.387,21.333,21.333,21.333h243.2v-46.933
	c0-11.093,10.24-21.333,21.333-21.333H396.8c2.56,0,4.267,1.707,4.267,4.267s-1.707,4.267-4.267,4.267h-34.133
	c-6.827,0-12.8,6.827-12.8,12.8v51.2C349.867,467.627,348.16,469.333,345.6,469.333z M174.933,349.867L174.933,349.867
	c-1.707,0-3.413-0.853-4.267-2.56l-33.28-99.84h-13.653c-2.56,0-4.267-1.707-4.267-4.267s1.707-4.267,4.267-4.267H140.8
	c1.707,0,3.413,0.853,4.267,2.56l30.72,91.307l55.467-142.507c0.853-1.707,2.56-2.56,4.267-2.56h145.067
	c2.56,0,4.267,1.707,4.267,4.267c0,2.56-1.707,4.267-4.267,4.267H238.08l-58.88,151.04
	C178.347,349.013,176.64,349.867,174.933,349.867z M345.6,349.867h-68.267c-2.56,0-4.267-1.707-4.267-4.267v-8.533
	c0-0.853,0-14.507,10.24-20.48l25.6-17.067c15.36-10.24,32.427-25.6,32.427-39.253c0-16.213-13.653-29.867-29.867-29.867
	S281.6,244.053,281.6,260.267c0,2.56-1.707,4.267-4.267,4.267s-4.267-1.707-4.267-4.267c0-21.333,17.067-38.4,38.4-38.4
	c21.333,0,38.4,17.067,38.4,38.4c0,20.48-25.6,39.253-35.84,46.08l-25.6,17.067c-6.827,4.267-6.827,13.653-6.827,13.653v4.267h64
	c2.56,0,4.267,1.707,4.267,4.267C349.867,348.16,348.16,349.867,345.6,349.867z M345.6,93.867H157.867
	c-2.56,0-4.267-1.707-4.267-4.267V38.4c0-2.56,1.707-4.267,4.267-4.267h48.64C212.48,14.507,230.4,0,251.733,0
	s39.253,14.507,45.227,34.133h48.64c2.56,0,4.267,1.707,4.267,4.267v51.2C349.867,92.16,348.16,93.867,345.6,93.867z
	 M162.133,85.333h179.2V42.667h-47.787c-1.707,0-3.413-1.707-4.267-3.413c-3.413-17.92-19.627-30.72-37.547-30.72
	c-17.92,0-34.133,12.8-37.547,30.72c0,1.707-2.56,3.413-4.267,3.413h-47.787V85.333z M251.733,59.733c-6.827,0-12.8-5.973-12.8-12.8
	s5.973-12.8,12.8-12.8c6.827,0,12.8,5.973,12.8,12.8S258.56,59.733,251.733,59.733z M251.733,42.667
	c-2.56,0-4.267,1.707-4.267,4.267c0,2.56,1.707,4.267,4.267,4.267c2.56,0,4.267-1.707,4.267-4.267
	C256,44.373,254.293,42.667,251.733,42.667z"/>
</svg>